<mxfile host="app.diagrams.net" modified="2021-10-13T08:30:44.538Z" agent="5.0 (Macintosh; Intel Mac OS X 10_15_7) AppleWebKit/537.36 (KHTML, like Gecko) Chrome/94.0.4606.81 Safari/537.36" etag="eP-ksQ9FcunjE_l1x0jc" version="15.5.1" type="github">
  <diagram id="R2lEEEUBdFMjLlhIrx00" name="Page-1">
    <mxGraphModel dx="1420" dy="2260" grid="1" gridSize="10" guides="1" tooltips="1" connect="1" arrows="1" fold="1" page="1" pageScale="1" pageWidth="850" pageHeight="1100" math="0" shadow="0" extFonts="Permanent Marker^https://fonts.googleapis.com/css?family=Permanent+Marker">
      <root>
        <mxCell id="0" />
        <mxCell id="1" parent="0" />
        <mxCell id="38CcMSmq6zg271yFkFW--68" style="edgeStyle=none;rounded=0;orthogonalLoop=1;jettySize=auto;html=1;exitX=0.5;exitY=1;exitDx=0;exitDy=0;entryX=0.28;entryY=0.249;entryDx=0;entryDy=0;entryPerimeter=0;endArrow=none;endFill=0;" edge="1" parent="1" source="38CcMSmq6zg271yFkFW--14" target="38CcMSmq6zg271yFkFW--67">
          <mxGeometry relative="1" as="geometry" />
        </mxCell>
        <mxCell id="38CcMSmq6zg271yFkFW--14" value="Customer" style="whiteSpace=wrap;html=1;" vertex="1" parent="1">
          <mxGeometry x="-20" y="100" width="120" height="60" as="geometry" />
        </mxCell>
        <mxCell id="38CcMSmq6zg271yFkFW--94" style="edgeStyle=none;rounded=0;orthogonalLoop=1;jettySize=auto;html=1;exitX=0.75;exitY=1;exitDx=0;exitDy=0;entryX=0.3;entryY=0.3;entryDx=0;entryDy=0;entryPerimeter=0;endArrow=none;endFill=0;" edge="1" parent="1" source="38CcMSmq6zg271yFkFW--15" target="38CcMSmq6zg271yFkFW--86">
          <mxGeometry relative="1" as="geometry" />
        </mxCell>
        <mxCell id="38CcMSmq6zg271yFkFW--15" value="Restaurant" style="whiteSpace=wrap;html=1;" vertex="1" parent="1">
          <mxGeometry x="250" y="-110" width="120" height="60" as="geometry" />
        </mxCell>
        <mxCell id="38CcMSmq6zg271yFkFW--84" style="edgeStyle=none;rounded=0;orthogonalLoop=1;jettySize=auto;html=1;exitX=0.5;exitY=1;exitDx=0;exitDy=0;entryX=0.765;entryY=0.273;entryDx=0;entryDy=0;entryPerimeter=0;endArrow=none;endFill=0;" edge="1" parent="1" source="38CcMSmq6zg271yFkFW--16" target="38CcMSmq6zg271yFkFW--83">
          <mxGeometry relative="1" as="geometry" />
        </mxCell>
        <mxCell id="38CcMSmq6zg271yFkFW--16" value="Food order" style="whiteSpace=wrap;html=1;" vertex="1" parent="1">
          <mxGeometry x="330" y="100" width="120" height="60" as="geometry" />
        </mxCell>
        <mxCell id="38CcMSmq6zg271yFkFW--69" style="edgeStyle=none;rounded=0;orthogonalLoop=1;jettySize=auto;html=1;exitX=0;exitY=0;exitDx=0;exitDy=0;entryX=0.714;entryY=0.774;entryDx=0;entryDy=0;entryPerimeter=0;endArrow=none;endFill=0;" edge="1" parent="1" source="38CcMSmq6zg271yFkFW--17" target="38CcMSmq6zg271yFkFW--67">
          <mxGeometry relative="1" as="geometry" />
        </mxCell>
        <mxCell id="38CcMSmq6zg271yFkFW--77" style="edgeStyle=none;rounded=0;orthogonalLoop=1;jettySize=auto;html=1;exitX=0;exitY=0.25;exitDx=0;exitDy=0;entryX=0.6;entryY=0.2;entryDx=0;entryDy=0;entryPerimeter=0;endArrow=none;endFill=0;" edge="1" parent="1" source="38CcMSmq6zg271yFkFW--17" target="38CcMSmq6zg271yFkFW--75">
          <mxGeometry relative="1" as="geometry" />
        </mxCell>
        <mxCell id="38CcMSmq6zg271yFkFW--17" value="Order" style="whiteSpace=wrap;html=1;" vertex="1" parent="1">
          <mxGeometry x="230" y="330" width="120" height="60" as="geometry" />
        </mxCell>
        <mxCell id="38CcMSmq6zg271yFkFW--95" style="edgeStyle=none;rounded=0;orthogonalLoop=1;jettySize=auto;html=1;exitX=1;exitY=0.5;exitDx=0;exitDy=0;entryX=0.1;entryY=0.4;entryDx=0;entryDy=0;entryPerimeter=0;endArrow=none;endFill=0;" edge="1" parent="1" source="38CcMSmq6zg271yFkFW--18" target="38CcMSmq6zg271yFkFW--75">
          <mxGeometry relative="1" as="geometry" />
        </mxCell>
        <mxCell id="38CcMSmq6zg271yFkFW--18" value="Payment" style="whiteSpace=wrap;html=1;" vertex="1" parent="1">
          <mxGeometry x="-190" y="320" width="120" height="60" as="geometry" />
        </mxCell>
        <mxCell id="38CcMSmq6zg271yFkFW--81" style="edgeStyle=none;rounded=0;orthogonalLoop=1;jettySize=auto;html=1;exitX=0.75;exitY=0;exitDx=0;exitDy=0;entryX=0.5;entryY=1;entryDx=0;entryDy=0;entryPerimeter=0;endArrow=none;endFill=0;" edge="1" parent="1" source="38CcMSmq6zg271yFkFW--19" target="38CcMSmq6zg271yFkFW--80">
          <mxGeometry relative="1" as="geometry" />
        </mxCell>
        <mxCell id="38CcMSmq6zg271yFkFW--19" value="Rider" style="whiteSpace=wrap;html=1;" vertex="1" parent="1">
          <mxGeometry x="240" y="650" width="120" height="60" as="geometry" />
        </mxCell>
        <mxCell id="38CcMSmq6zg271yFkFW--50" style="edgeStyle=none;rounded=0;orthogonalLoop=1;jettySize=auto;html=1;exitX=1;exitY=0.5;exitDx=0;exitDy=0;entryX=0;entryY=0.75;entryDx=0;entryDy=0;endArrow=none;endFill=0;" edge="1" parent="1" source="38CcMSmq6zg271yFkFW--22" target="38CcMSmq6zg271yFkFW--14">
          <mxGeometry relative="1" as="geometry" />
        </mxCell>
        <mxCell id="38CcMSmq6zg271yFkFW--22" value="id" style="ellipse;whiteSpace=wrap;html=1;" vertex="1" parent="1">
          <mxGeometry x="-140" y="110" width="80" height="80" as="geometry" />
        </mxCell>
        <mxCell id="38CcMSmq6zg271yFkFW--96" style="edgeStyle=none;rounded=0;orthogonalLoop=1;jettySize=auto;html=1;exitX=1;exitY=1;exitDx=0;exitDy=0;endArrow=none;endFill=0;" edge="1" parent="1" source="38CcMSmq6zg271yFkFW--24" target="38CcMSmq6zg271yFkFW--14">
          <mxGeometry relative="1" as="geometry" />
        </mxCell>
        <mxCell id="38CcMSmq6zg271yFkFW--24" value="name" style="ellipse;whiteSpace=wrap;html=1;" vertex="1" parent="1">
          <mxGeometry x="-100" y="10" width="80" height="80" as="geometry" />
        </mxCell>
        <mxCell id="38CcMSmq6zg271yFkFW--29" style="edgeStyle=none;rounded=0;orthogonalLoop=1;jettySize=auto;html=1;exitX=0.5;exitY=1;exitDx=0;exitDy=0;endArrow=none;endFill=0;" edge="1" parent="1" source="38CcMSmq6zg271yFkFW--25" target="38CcMSmq6zg271yFkFW--14">
          <mxGeometry relative="1" as="geometry" />
        </mxCell>
        <mxCell id="38CcMSmq6zg271yFkFW--25" value="address" style="ellipse;whiteSpace=wrap;html=1;" vertex="1" parent="1">
          <mxGeometry y="-30" width="80" height="80" as="geometry" />
        </mxCell>
        <mxCell id="38CcMSmq6zg271yFkFW--28" style="rounded=0;orthogonalLoop=1;jettySize=auto;html=1;exitX=0;exitY=1;exitDx=0;exitDy=0;entryX=1;entryY=0;entryDx=0;entryDy=0;endArrow=none;endFill=0;" edge="1" parent="1" source="38CcMSmq6zg271yFkFW--26" target="38CcMSmq6zg271yFkFW--14">
          <mxGeometry relative="1" as="geometry" />
        </mxCell>
        <mxCell id="38CcMSmq6zg271yFkFW--26" value="phone" style="ellipse;whiteSpace=wrap;html=1;" vertex="1" parent="1">
          <mxGeometry x="100" width="80" height="80" as="geometry" />
        </mxCell>
        <mxCell id="38CcMSmq6zg271yFkFW--34" style="edgeStyle=none;rounded=0;orthogonalLoop=1;jettySize=auto;html=1;exitX=0.5;exitY=1;exitDx=0;exitDy=0;endArrow=none;endFill=0;" edge="1" parent="1" source="38CcMSmq6zg271yFkFW--32" target="38CcMSmq6zg271yFkFW--15">
          <mxGeometry relative="1" as="geometry" />
        </mxCell>
        <mxCell id="38CcMSmq6zg271yFkFW--32" value="phone" style="ellipse;whiteSpace=wrap;html=1;" vertex="1" parent="1">
          <mxGeometry x="210" y="-230" width="80" height="80" as="geometry" />
        </mxCell>
        <mxCell id="38CcMSmq6zg271yFkFW--35" style="edgeStyle=none;rounded=0;orthogonalLoop=1;jettySize=auto;html=1;exitX=0;exitY=1;exitDx=0;exitDy=0;endArrow=none;endFill=0;" edge="1" parent="1" source="38CcMSmq6zg271yFkFW--33" target="38CcMSmq6zg271yFkFW--15">
          <mxGeometry relative="1" as="geometry" />
        </mxCell>
        <mxCell id="38CcMSmq6zg271yFkFW--33" value="address" style="ellipse;whiteSpace=wrap;html=1;" vertex="1" parent="1">
          <mxGeometry x="330" y="-230" width="80" height="80" as="geometry" />
        </mxCell>
        <mxCell id="38CcMSmq6zg271yFkFW--40" style="edgeStyle=none;rounded=0;orthogonalLoop=1;jettySize=auto;html=1;exitX=1;exitY=0;exitDx=0;exitDy=0;entryX=0;entryY=0.5;entryDx=0;entryDy=0;endArrow=none;endFill=0;" edge="1" parent="1" source="38CcMSmq6zg271yFkFW--36" target="38CcMSmq6zg271yFkFW--19">
          <mxGeometry relative="1" as="geometry" />
        </mxCell>
        <mxCell id="38CcMSmq6zg271yFkFW--36" value="name" style="ellipse;whiteSpace=wrap;html=1;" vertex="1" parent="1">
          <mxGeometry x="120" y="680" width="80" height="80" as="geometry" />
        </mxCell>
        <mxCell id="38CcMSmq6zg271yFkFW--79" style="edgeStyle=none;rounded=0;orthogonalLoop=1;jettySize=auto;html=1;exitX=0;exitY=0.5;exitDx=0;exitDy=0;endArrow=none;endFill=0;" edge="1" parent="1" source="38CcMSmq6zg271yFkFW--37" target="38CcMSmq6zg271yFkFW--19">
          <mxGeometry relative="1" as="geometry" />
        </mxCell>
        <mxCell id="38CcMSmq6zg271yFkFW--37" value="phone" style="ellipse;whiteSpace=wrap;html=1;" vertex="1" parent="1">
          <mxGeometry x="400" y="650" width="80" height="80" as="geometry" />
        </mxCell>
        <mxCell id="38CcMSmq6zg271yFkFW--42" style="edgeStyle=none;rounded=0;orthogonalLoop=1;jettySize=auto;html=1;exitX=1;exitY=0;exitDx=0;exitDy=0;entryX=0.416;entryY=1.005;entryDx=0;entryDy=0;entryPerimeter=0;endArrow=none;endFill=0;" edge="1" parent="1" source="38CcMSmq6zg271yFkFW--41" target="38CcMSmq6zg271yFkFW--19">
          <mxGeometry relative="1" as="geometry" />
        </mxCell>
        <mxCell id="38CcMSmq6zg271yFkFW--41" value="live_location" style="ellipse;whiteSpace=wrap;html=1;" vertex="1" parent="1">
          <mxGeometry x="200" y="740" width="80" height="80" as="geometry" />
        </mxCell>
        <mxCell id="38CcMSmq6zg271yFkFW--60" style="edgeStyle=none;rounded=0;orthogonalLoop=1;jettySize=auto;html=1;exitX=1;exitY=0;exitDx=0;exitDy=0;entryX=0;entryY=0.5;entryDx=0;entryDy=0;endArrow=none;endFill=0;" edge="1" parent="1" source="38CcMSmq6zg271yFkFW--43" target="38CcMSmq6zg271yFkFW--18">
          <mxGeometry relative="1" as="geometry" />
        </mxCell>
        <mxCell id="38CcMSmq6zg271yFkFW--43" value="id" style="ellipse;whiteSpace=wrap;html=1;" vertex="1" parent="1">
          <mxGeometry x="-290" y="370" width="80" height="80" as="geometry" />
        </mxCell>
        <mxCell id="38CcMSmq6zg271yFkFW--78" style="edgeStyle=none;rounded=0;orthogonalLoop=1;jettySize=auto;html=1;exitX=0;exitY=0;exitDx=0;exitDy=0;endArrow=none;endFill=0;" edge="1" parent="1" source="38CcMSmq6zg271yFkFW--44" target="38CcMSmq6zg271yFkFW--19">
          <mxGeometry relative="1" as="geometry" />
        </mxCell>
        <mxCell id="38CcMSmq6zg271yFkFW--44" value="id" style="ellipse;whiteSpace=wrap;html=1;" vertex="1" parent="1">
          <mxGeometry x="310" y="740" width="80" height="80" as="geometry" />
        </mxCell>
        <mxCell id="38CcMSmq6zg271yFkFW--92" style="edgeStyle=none;rounded=0;orthogonalLoop=1;jettySize=auto;html=1;exitX=1;exitY=1;exitDx=0;exitDy=0;endArrow=none;endFill=0;" edge="1" parent="1" source="38CcMSmq6zg271yFkFW--46" target="38CcMSmq6zg271yFkFW--15">
          <mxGeometry relative="1" as="geometry" />
        </mxCell>
        <mxCell id="38CcMSmq6zg271yFkFW--46" value="id" style="ellipse;whiteSpace=wrap;html=1;" vertex="1" parent="1">
          <mxGeometry x="130" y="-150" width="80" height="80" as="geometry" />
        </mxCell>
        <mxCell id="38CcMSmq6zg271yFkFW--58" style="edgeStyle=none;rounded=0;orthogonalLoop=1;jettySize=auto;html=1;exitX=0.5;exitY=0;exitDx=0;exitDy=0;endArrow=none;endFill=0;" edge="1" parent="1" source="38CcMSmq6zg271yFkFW--51" target="38CcMSmq6zg271yFkFW--18">
          <mxGeometry relative="1" as="geometry" />
        </mxCell>
        <mxCell id="38CcMSmq6zg271yFkFW--51" value="status" style="ellipse;whiteSpace=wrap;html=1;" vertex="1" parent="1">
          <mxGeometry x="-190" y="410" width="80" height="80" as="geometry" />
        </mxCell>
        <mxCell id="38CcMSmq6zg271yFkFW--55" style="edgeStyle=none;rounded=0;orthogonalLoop=1;jettySize=auto;html=1;exitX=0.5;exitY=0;exitDx=0;exitDy=0;endArrow=none;endFill=0;" edge="1" parent="1" source="38CcMSmq6zg271yFkFW--52" target="38CcMSmq6zg271yFkFW--17">
          <mxGeometry relative="1" as="geometry" />
        </mxCell>
        <mxCell id="38CcMSmq6zg271yFkFW--52" value="id" style="ellipse;whiteSpace=wrap;html=1;" vertex="1" parent="1">
          <mxGeometry x="400" y="280" width="80" height="80" as="geometry" />
        </mxCell>
        <mxCell id="38CcMSmq6zg271yFkFW--56" style="edgeStyle=none;rounded=0;orthogonalLoop=1;jettySize=auto;html=1;exitX=0.5;exitY=0;exitDx=0;exitDy=0;entryX=0.75;entryY=1;entryDx=0;entryDy=0;endArrow=none;endFill=0;" edge="1" parent="1" source="38CcMSmq6zg271yFkFW--53" target="38CcMSmq6zg271yFkFW--17">
          <mxGeometry relative="1" as="geometry" />
        </mxCell>
        <mxCell id="38CcMSmq6zg271yFkFW--53" value="customer_id" style="ellipse;whiteSpace=wrap;html=1;" vertex="1" parent="1">
          <mxGeometry x="270" y="435" width="80" height="80" as="geometry" />
        </mxCell>
        <mxCell id="38CcMSmq6zg271yFkFW--57" style="edgeStyle=none;rounded=0;orthogonalLoop=1;jettySize=auto;html=1;exitX=0;exitY=0;exitDx=0;exitDy=0;endArrow=none;endFill=0;" edge="1" parent="1" source="38CcMSmq6zg271yFkFW--54" target="38CcMSmq6zg271yFkFW--17">
          <mxGeometry relative="1" as="geometry" />
        </mxCell>
        <mxCell id="38CcMSmq6zg271yFkFW--54" value="rider_id" style="ellipse;whiteSpace=wrap;html=1;" vertex="1" parent="1">
          <mxGeometry x="385" y="370" width="80" height="80" as="geometry" />
        </mxCell>
        <mxCell id="38CcMSmq6zg271yFkFW--66" style="edgeStyle=none;rounded=0;orthogonalLoop=1;jettySize=auto;html=1;exitX=0.5;exitY=0;exitDx=0;exitDy=0;endArrow=none;endFill=0;" edge="1" parent="1" source="38CcMSmq6zg271yFkFW--65" target="38CcMSmq6zg271yFkFW--17">
          <mxGeometry relative="1" as="geometry" />
        </mxCell>
        <mxCell id="38CcMSmq6zg271yFkFW--65" value="date/time" style="ellipse;whiteSpace=wrap;html=1;" vertex="1" parent="1">
          <mxGeometry x="180" y="430" width="80" height="80" as="geometry" />
        </mxCell>
        <mxCell id="38CcMSmq6zg271yFkFW--67" value="makes" style="strokeWidth=2;html=1;shape=mxgraph.flowchart.decision;whiteSpace=wrap;" vertex="1" parent="1">
          <mxGeometry x="110" y="190" width="100" height="100" as="geometry" />
        </mxCell>
        <mxCell id="38CcMSmq6zg271yFkFW--71" style="edgeStyle=none;rounded=0;orthogonalLoop=1;jettySize=auto;html=1;exitX=1;exitY=0;exitDx=0;exitDy=0;entryX=0;entryY=0.5;entryDx=0;entryDy=0;endArrow=none;endFill=0;" edge="1" parent="1" source="38CcMSmq6zg271yFkFW--70" target="38CcMSmq6zg271yFkFW--17">
          <mxGeometry relative="1" as="geometry" />
        </mxCell>
        <mxCell id="38CcMSmq6zg271yFkFW--70" value="payment_id" style="ellipse;whiteSpace=wrap;html=1;" vertex="1" parent="1">
          <mxGeometry x="110" y="370" width="80" height="80" as="geometry" />
        </mxCell>
        <mxCell id="38CcMSmq6zg271yFkFW--74" style="edgeStyle=none;rounded=0;orthogonalLoop=1;jettySize=auto;html=1;exitX=0;exitY=0;exitDx=0;exitDy=0;endArrow=none;endFill=0;" edge="1" parent="1" source="38CcMSmq6zg271yFkFW--72" target="38CcMSmq6zg271yFkFW--18">
          <mxGeometry relative="1" as="geometry" />
        </mxCell>
        <mxCell id="38CcMSmq6zg271yFkFW--72" value="type" style="ellipse;whiteSpace=wrap;html=1;" vertex="1" parent="1">
          <mxGeometry x="-90" y="410" width="80" height="80" as="geometry" />
        </mxCell>
        <mxCell id="38CcMSmq6zg271yFkFW--75" value="verified" style="strokeWidth=2;html=1;shape=mxgraph.flowchart.decision;whiteSpace=wrap;" vertex="1" parent="1">
          <mxGeometry x="-10" y="320" width="100" height="100" as="geometry" />
        </mxCell>
        <mxCell id="38CcMSmq6zg271yFkFW--82" style="edgeStyle=none;rounded=0;orthogonalLoop=1;jettySize=auto;html=1;exitX=0.5;exitY=0;exitDx=0;exitDy=0;exitPerimeter=0;entryX=1;entryY=1;entryDx=0;entryDy=0;endArrow=none;endFill=0;" edge="1" parent="1" source="38CcMSmq6zg271yFkFW--80" target="38CcMSmq6zg271yFkFW--17">
          <mxGeometry relative="1" as="geometry" />
        </mxCell>
        <mxCell id="38CcMSmq6zg271yFkFW--80" value="deliver" style="strokeWidth=2;html=1;shape=mxgraph.flowchart.decision;whiteSpace=wrap;" vertex="1" parent="1">
          <mxGeometry x="350" y="525" width="100" height="100" as="geometry" />
        </mxCell>
        <mxCell id="38CcMSmq6zg271yFkFW--85" style="edgeStyle=none;rounded=0;orthogonalLoop=1;jettySize=auto;html=1;exitX=0.5;exitY=1;exitDx=0;exitDy=0;exitPerimeter=0;entryX=0.5;entryY=0;entryDx=0;entryDy=0;endArrow=none;endFill=0;" edge="1" parent="1" source="38CcMSmq6zg271yFkFW--83" target="38CcMSmq6zg271yFkFW--17">
          <mxGeometry relative="1" as="geometry" />
        </mxCell>
        <mxCell id="38CcMSmq6zg271yFkFW--83" value="comprised of" style="strokeWidth=2;html=1;shape=mxgraph.flowchart.decision;whiteSpace=wrap;" vertex="1" parent="1">
          <mxGeometry x="260" y="200" width="100" height="100" as="geometry" />
        </mxCell>
        <mxCell id="38CcMSmq6zg271yFkFW--88" style="edgeStyle=none;rounded=0;orthogonalLoop=1;jettySize=auto;html=1;exitX=0.5;exitY=1;exitDx=0;exitDy=0;exitPerimeter=0;entryX=0.583;entryY=0;entryDx=0;entryDy=0;entryPerimeter=0;endArrow=none;endFill=0;" edge="1" parent="1" source="38CcMSmq6zg271yFkFW--86" target="38CcMSmq6zg271yFkFW--16">
          <mxGeometry relative="1" as="geometry" />
        </mxCell>
        <mxCell id="38CcMSmq6zg271yFkFW--86" value="prepare" style="strokeWidth=2;html=1;shape=mxgraph.flowchart.decision;whiteSpace=wrap;" vertex="1" parent="1">
          <mxGeometry x="350" y="-20" width="100" height="100" as="geometry" />
        </mxCell>
      </root>
    </mxGraphModel>
  </diagram>
</mxfile>
